<svg width="42" height="37" viewBox="0 0 42 37" fill="none" xmlns="http://www.w3.org/2000/svg">
<path d="M6.52442 12.0042C8.49182 10.4903 10.1239 11.5344 12.3022 14.0317C12.5468 14.3136 12.8758 13.9837 13.0634 13.8229C13.249 13.6601 16.1231 11.0979 16.2644 10.981C16.4036 10.8578 16.5723 10.6281 16.3509 10.3713C16.1252 10.1144 15.3092 9.0662 14.7841 8.38548C10.9716 3.44708 25.2137 0.0977377 23.027 0.0455348C21.9136 0.0163012 17.4474 -0.0359017 16.7789 0.0371824C14.0735 0.319078 10.6764 2.82273 8.96627 3.98999C6.72896 5.50596 5.89393 6.3955 5.75686 6.5187C5.12426 7.06579 5.65564 8.3291 4.50852 9.32513C3.29603 10.3755 2.53901 9.57988 1.83682 10.1896C1.48889 10.4945 0.514681 11.217 0.236335 11.4571C-0.0441198 11.7014 -0.0947282 12.1128 0.192052 12.4406C0.192052 12.4406 2.85743 15.3556 3.08095 15.6145C3.30236 15.8693 3.90544 16.0906 4.27657 15.7628C4.6498 15.437 5.60925 14.6081 5.76951 14.4619C5.93399 14.3241 5.66408 12.664 6.52442 12.0042ZM18.5608 13.0837C18.3077 12.7935 17.9935 12.7851 17.7236 13.0232L14.6998 15.6375C14.4615 15.8463 14.4278 16.2284 14.6428 16.4728L32.1322 36.1825C32.5413 36.6481 33.2498 36.6962 33.7159 36.2932L35.7613 34.5955C36.2294 34.1883 36.2779 33.4826 35.8709 33.0127L18.5608 13.0837ZM41.8807 4.69577C41.7246 3.66424 41.1848 3.87932 40.9044 4.31573C40.6239 4.75633 39.384 6.61684 38.8737 7.46044C38.3676 8.29569 37.1193 9.94739 34.7955 8.31657C32.3747 6.6231 33.2161 5.44123 33.6378 4.64566C34.0617 3.84591 35.3627 1.60327 35.5504 1.32555C35.7381 1.04366 35.5188 0.225113 34.7681 0.567564C34.0153 0.910015 29.4479 2.70788 28.8153 5.28671C28.1679 7.90939 29.3572 10.2543 27.0229 12.5826L24.1909 15.506L27.0356 18.7759L30.5233 15.4976C31.3541 14.6707 33.1297 13.8668 34.7365 14.2301C38.1799 15.0006 40.0588 13.7206 41.1911 11.6033C42.2075 9.71143 42.0388 5.7273 41.8807 4.69577ZM5.68938 33.2257C5.25078 33.6621 5.25078 34.3721 5.68938 34.8085L7.69474 36.7505C8.13335 37.1869 8.82921 37.0031 9.26781 36.5667L19.6151 26.4936L16.4458 22.9146L5.68938 33.2257Z" fill="#2F363D"/>
</svg>
