<svg width="37" height="37" viewBox="0 0 37 37" fill="none" xmlns="http://www.w3.org/2000/svg">
<g clip-path="url(#clip0_322_10)">
<path d="M36.4145 4.70851C36.3702 4.57489 36.2598 4.47377 36.1225 4.44128C35.9868 4.4096 35.8415 4.4494 35.7419 4.54931L32.8223 7.469C32.3771 7.91412 31.7854 8.15942 31.1555 8.15942C30.526 8.15942 29.9343 7.91452 29.4887 7.4694C28.5701 6.55032 28.5701 5.05535 29.4887 4.13627L32.4084 1.21658C32.5079 1.11708 32.5489 0.972902 32.5164 0.836035C32.4844 0.699169 32.3828 0.588701 32.2492 0.544026C29.8681 -0.245902 27.2879 0.361672 25.5196 2.13038C23.707 3.94255 23.1169 6.61774 23.9795 9.01352L9.01354 23.9799C6.61857 23.1173 3.94297 23.7078 2.1304 25.52C0.361691 27.2887 -0.24629 29.8672 0.543638 32.2496C0.587907 32.3832 0.698375 32.4847 0.835648 32.5168C0.971702 32.5497 1.11669 32.5083 1.21619 32.4088L4.13588 29.4891C5.05415 28.57 6.54953 28.57 7.46901 29.4891C7.91414 29.9342 8.15903 30.526 8.15903 31.1559C8.15903 31.7858 7.91414 32.3771 7.46861 32.8226L4.54892 35.7423C4.44942 35.8418 4.4084 35.9856 4.44089 36.1229C4.47338 36.2602 4.57451 36.3702 4.70812 36.4149C5.39855 36.6435 6.10522 36.7556 6.80377 36.7556C8.51684 36.7556 10.1816 36.0847 11.4377 34.8285C13.2503 33.016 13.8408 30.3412 12.9782 27.9454L27.9446 12.979C30.3408 13.8412 33.0152 13.2515 34.8277 11.4385C36.5973 9.66983 37.2048 7.09089 36.4145 4.70851Z" fill="#2F363D"/>
<path d="M29.4806 23.4646C29.4087 23.3927 29.3129 23.3509 29.2117 23.346C27.8057 23.2831 26.3371 22.5841 25.1817 21.4287C24.4742 20.7208 23.9369 19.8927 23.6128 19.0337L19.0954 23.5511C19.9543 23.8756 20.7824 24.4125 21.4903 25.12C22.6458 26.2759 23.3443 27.7444 23.4077 29.1501C23.4126 29.2512 23.4544 29.347 23.5263 29.4189L29.5679 35.4605C30.3887 36.2813 31.467 36.6915 32.5449 36.6915C33.6231 36.6915 34.7018 36.2813 35.5222 35.4605C37.1634 33.819 37.1634 31.1478 35.5222 29.5062L29.4806 23.4646Z" fill="#2F363D"/>
<path d="M2.3765 5.95871C2.42646 6.04765 2.50809 6.11466 2.60516 6.14634L4.96885 6.91393L14.6628 16.6079L16.5465 14.7243L6.85249 5.03029L6.0845 2.66659C6.05282 2.56953 5.98581 2.4879 5.89686 2.43794L2.1178 0.31671C1.959 0.227767 1.7604 0.255384 1.63206 0.383722L0.322282 1.69309C0.193538 1.82184 0.166327 2.02044 0.25527 2.17883L2.3765 5.95871Z" fill="#2F363D"/>
</g>
<defs>
<clipPath id="clip0_322_10">
<rect width="37" height="37" fill="white"/>
</clipPath>
</defs>
</svg>
