<svg width="48" height="48" viewBox="0 0 48 48" fill="none" xmlns="http://www.w3.org/2000/svg">
<path fill-rule="evenodd" clip-rule="evenodd" d="M28 0H20V3.49546C17.2587 4.10943 14.7249 5.27244 12.5199 6.86301L9.85786 4.20096L4.201 9.85782L7.06115 12.718C5.70581 14.9054 4.75057 17.3668 4.2976 20H0V28H4.49546C5.05537 30.4999 6.07189 32.8273 7.45288 34.8901L4.20099 38.142L9.85785 43.7988L13.1097 40.547C15.1725 41.928 17.5 42.9446 20 43.5045V48H28V43.7024C30.6332 43.2494 33.0946 42.2942 35.282 40.9389L38.1421 43.7989L43.799 38.1421L41.137 35.4801C42.7276 33.2751 43.8906 30.7413 44.5045 28H48V20H44.7024C44.2069 17.1198 43.1106 14.4452 41.547 12.1097L43.799 9.8577L38.1421 4.20085L35.8901 6.45288C33.5547 4.88937 30.8801 3.79304 28 3.2976V0ZM24.5 38C32.5081 38 39 31.5081 39 23.5C39 15.4919 32.5081 9 24.5 9C16.4919 9 10 15.4919 10 23.5C10 31.5081 16.4919 38 24.5 38Z" fill="#2F363D"/>
</svg>
