<svg width="46" height="37" viewBox="0 0 46 37" fill="none" xmlns="http://www.w3.org/2000/svg">
<path d="M45.4342 31.5217C44.8661 30.6637 41.4 25.4375 41.4 25.4375V4.625C41.4 2.07663 39.33 0 36.8 0H9.2C6.6677 0 4.6 2.07663 4.6 4.625V25.4375C4.6 25.4375 1.1339 30.6637 0.5658 31.5217C0 32.375 0 32.8676 0 33.5312V34.6875C0 35.8438 1.15 37 2.2977 37H43.7023C44.85 37 46 35.8438 46 34.6875V33.5312C46 32.8676 46 32.375 45.4342 31.5217ZM16.1 32.375L17.48 30.0625H28.52L29.9 32.375H16.1ZM36.8 23.125H9.2V4.625H36.8V23.125Z" fill="#2F363D"/>
</svg>
