<svg width="59" height="62" viewBox="0 0 59 62" fill="none" xmlns="http://www.w3.org/2000/svg">
<path d="M29.5 0L40.209 14.3197L29.5 28.6394L18.791 14.3197L29.5 0Z" fill="white"/>
<path d="M24.4331 37.5129L12.2165 21.1741L0 37.5129H24.4331Z" fill="white"/>
<path d="M46.7835 21.1741L59 37.5129H34.5669L46.7835 21.1741Z" fill="white"/>
<path fill-rule="evenodd" clip-rule="evenodd" d="M8.01724 50.0711C8.30706 49.59 8.45197 48.9524 8.45197 48.1581C8.45197 47.7031 8.39252 47.2817 8.27362 46.8939C8.15843 46.5061 8.00052 46.1649 7.79987 45.8703C7.60294 45.5757 7.37257 45.3202 7.10876 45.1039C6.95642 44.9734 6.78364 44.8522 6.59042 44.7404C6.39721 44.6248 6.16312 44.5222 5.88816 44.4327C5.6132 44.3395 5.30295 44.2686 4.95739 44.2201C4.61555 44.1679 4.20311 44.1418 3.72008 44.1418H0.509745V51.8946H4.67872C5.67451 51.8946 6.44923 51.6765 7.00286 51.2402C7.39301 50.9418 7.73113 50.5521 8.01724 50.0711ZM5.72096 46.5863C5.96248 46.9368 6.08324 47.4272 6.08324 48.0574C6.08324 48.9636 5.8603 49.5621 5.41442 49.8529C4.96854 50.1438 4.44091 50.2892 3.83155 50.2892H2.83946V45.6969H3.83155C4.18082 45.6969 4.52266 45.7565 4.85707 45.8759C5.19519 45.9952 5.48316 46.232 5.72096 46.5863Z" fill="white"/>
<path fill-rule="evenodd" clip-rule="evenodd" d="M11.8458 49.5341H15.842V49.1314C15.842 48.4154 15.7026 47.8318 15.424 47.3806C15.149 46.9256 14.796 46.5993 14.365 46.4017C13.9377 46.2003 13.4937 46.0996 13.0329 46.0996C12.3344 46.0996 11.7399 46.2264 11.2494 46.48C10.7589 46.7298 10.3911 47.0766 10.1459 47.5204C9.90435 47.9604 9.78359 48.4601 9.78359 49.0195C9.78359 49.5863 9.90435 50.0935 10.1459 50.541C10.3911 50.9884 10.7589 51.3427 11.2494 51.6037C11.7399 51.8648 12.3344 51.9953 13.0329 51.9953C13.6795 51.9953 14.2108 51.9338 14.627 51.8107C15.0468 51.6839 15.4035 51.5441 15.6971 51.3912V50.1438C14.8796 50.5242 14.1328 50.7144 13.4565 50.7144C13.0701 50.7144 12.7245 50.6044 12.4198 50.3843C12.1152 50.1643 11.9238 49.8809 11.8458 49.5341ZM13.685 47.6658C13.8671 47.8821 13.9581 48.173 13.9581 48.5384H11.79C11.79 48.1804 11.8922 47.8914 12.0966 47.6714C12.3047 47.4477 12.5759 47.3358 12.9103 47.3358C13.2484 47.3358 13.5067 47.4458 13.685 47.6658Z" fill="white"/>
<path d="M17.391 51.8946H19.403V44.1418H17.391V51.8946Z" fill="white"/>
<path d="M24.859 51.8555C25.2268 51.7622 25.5148 51.6653 25.7229 51.5646V49.9928C25.2027 50.2613 24.7828 50.3955 24.4633 50.3955C24.218 50.3955 24.0341 50.3526 23.9115 50.2669C23.7926 50.1774 23.7201 50.0674 23.6941 49.9368C23.6681 49.8063 23.6551 49.6348 23.6551 49.4222V47.5987H25.5724V46.2003H23.6551V44.4942H23.4266L20.7346 47.2463V47.5987H21.6431V49.8697C21.6431 51.2868 22.3658 51.9953 23.8112 51.9953C24.1456 51.9953 24.4949 51.9487 24.859 51.8555Z" fill="white"/>
<path fill-rule="evenodd" clip-rule="evenodd" d="M32.1375 51.889C32.3865 51.8182 32.6577 51.7249 32.9513 51.6093V50.5521C32.7357 50.6603 32.5648 50.7144 32.4385 50.7144C32.3345 50.7144 32.262 50.664 32.2211 50.5633C32.184 50.4589 32.1654 50.3023 32.1654 50.0935V47.8952C32.1654 47.3358 31.9573 46.8976 31.5412 46.5807C31.1287 46.26 30.5119 46.0996 29.6908 46.0996C29.3675 46.0996 29.048 46.1276 28.7321 46.1835C28.4163 46.2394 28.1135 46.3252 27.8236 46.4408C27.5338 46.5527 27.2644 46.6981 27.0155 46.8771V48.421C27.3276 48.1152 27.6713 47.8653 28.0466 47.6714C28.4219 47.4775 28.8287 47.3806 29.2672 47.3806C29.6387 47.3806 29.8803 47.4589 29.9917 47.6155C30.1032 47.7721 30.1589 47.9884 30.1589 48.2643C30.0809 48.3054 30.0066 48.3389 29.936 48.365C29.8654 48.3911 29.7576 48.4284 29.6127 48.4769C29.4715 48.5217 29.2616 48.5888 28.9829 48.6783C28.4925 48.8349 28.0986 48.9859 27.8013 49.1314C27.5041 49.2768 27.2663 49.4651 27.0879 49.6963C26.9133 49.9238 26.826 50.2128 26.826 50.5633C26.826 50.7945 26.8761 51.0201 26.9765 51.2402C27.0805 51.4564 27.2589 51.6373 27.5115 51.7827C27.7679 51.9244 28.1023 51.9953 28.5148 51.9953C28.9421 51.9953 29.2876 51.9394 29.5514 51.8275C29.8152 51.7119 30.0549 51.5665 30.2704 51.3912C30.3261 51.559 30.419 51.7026 30.5491 51.8219C30.6791 51.9375 30.9095 51.9953 31.2402 51.9953C31.5895 51.9953 31.8886 51.9599 32.1375 51.889ZM30.1589 49.1705V50.5186C30.0177 50.6267 29.8784 50.72 29.7409 50.7983C29.6072 50.8728 29.4715 50.9101 29.3341 50.9101C29.1891 50.9101 29.061 50.8598 28.9495 50.7591C28.8417 50.6584 28.7879 50.513 28.7879 50.3228C28.7879 50.058 28.8975 49.8492 29.1167 49.6963C29.3359 49.5397 29.6833 49.3644 30.1589 49.1705Z" fill="white"/>
<path d="M41.0268 51.8946H43.3565V44.1418H41.2442L38.8587 47.0505L36.4844 44.1418H34.372V51.8946H36.6349V47.4029L38.7417 50.004H38.9256L41.0268 47.4029V51.8946Z" fill="white"/>
<path fill-rule="evenodd" clip-rule="evenodd" d="M50.5069 51.889C50.7558 51.8182 51.0271 51.7249 51.3206 51.6093V50.5521C51.1051 50.6603 50.9342 50.7144 50.8078 50.7144C50.7038 50.7144 50.6313 50.664 50.5905 50.5633C50.5533 50.4589 50.5347 50.3023 50.5347 50.0935V47.8952C50.5347 47.3358 50.3266 46.8976 49.9105 46.5807C49.4981 46.26 48.8813 46.0996 48.0601 46.0996C47.7368 46.0996 47.4173 46.1276 47.1015 46.1835C46.7856 46.2394 46.4828 46.3252 46.193 46.4408C45.9032 46.5527 45.6338 46.6981 45.3848 46.8771V48.421C45.6969 48.1152 46.0406 47.8653 46.4159 47.6714C46.7912 47.4775 47.1981 47.3806 47.6365 47.3806C48.0081 47.3806 48.2496 47.4589 48.3611 47.6155C48.4725 47.7721 48.5283 47.9884 48.5283 48.2643C48.4502 48.3054 48.3759 48.3389 48.3053 48.365C48.2347 48.3911 48.127 48.4284 47.9821 48.4769C47.8409 48.5217 47.6309 48.5888 47.3523 48.6783C46.8618 48.8349 46.4679 48.9859 46.1707 49.1314C45.8734 49.2768 45.6356 49.4651 45.4573 49.6963C45.2826 49.9238 45.1953 50.2128 45.1953 50.5633C45.1953 50.7945 45.2455 51.0201 45.3458 51.2402C45.4498 51.4564 45.6282 51.6373 45.8809 51.7827C46.1372 51.9244 46.4716 51.9953 46.8841 51.9953C47.3114 51.9953 47.6569 51.9394 47.9208 51.8275C48.1846 51.7119 48.4242 51.5665 48.6397 51.3912C48.6955 51.559 48.7884 51.7026 48.9184 51.8219C49.0485 51.9375 49.2788 51.9953 49.6095 51.9953C49.9588 51.9953 50.2579 51.9599 50.5069 51.889ZM48.5283 49.1705V50.5186C48.3871 50.6267 48.2477 50.72 48.1103 50.7983C47.9765 50.8728 47.8409 50.9101 47.7034 50.9101C47.5585 50.9101 47.4303 50.8598 47.3188 50.7591C47.2111 50.6584 47.1572 50.513 47.1572 50.3228C47.1572 50.058 47.2668 49.8492 47.486 49.6963C47.7052 49.5397 48.0527 49.3644 48.5283 49.1705Z" fill="white"/>
<path d="M56.2583 51.8946H58.7329L56.4533 48.902L58.5991 46.2003H56.4032L55.3442 47.7497L54.2964 46.2003H51.8273L54.0679 49.0978L51.8719 51.8946H54.0679L55.1603 50.2781L56.2583 51.8946Z" fill="white"/>
<path fill-rule="evenodd" clip-rule="evenodd" d="M20.7406 61.8993H23.1261L19.7207 54.1465H17.1457L13.7292 61.8993H16.1146L16.7556 60.3275H20.1108L20.7406 61.8993ZM18.4443 56.1491L19.5758 58.9794H17.3018L18.4443 56.1491Z" fill="white"/>
<path d="M28.4149 61.8993H30.4269V56.205H28.4149V59.55C28.2365 59.811 28.0619 60.0254 27.891 60.1933C27.72 60.3611 27.4878 60.445 27.1943 60.445C26.8524 60.445 26.6295 60.3294 26.5255 60.0982C26.4251 59.8632 26.375 59.591 26.375 59.2815V56.205H24.3629V59.55C24.3629 60.1802 24.4893 60.747 24.7419 61.2505C24.9946 61.7502 25.5501 62 26.4084 62C26.8432 62 27.2147 61.9254 27.5231 61.7763C27.8352 61.6234 28.1325 61.394 28.4149 61.0882V61.8993Z" fill="white"/>
<path d="M35.7826 61.8602C36.1504 61.7669 36.4384 61.67 36.6465 61.5693V59.9975C36.1263 60.266 35.7064 60.4002 35.3869 60.4002C35.1416 60.4002 34.9577 60.3573 34.8351 60.2716C34.7162 60.1821 34.6437 60.0721 34.6177 59.9415C34.5917 59.811 34.5787 59.6395 34.5787 59.4269V57.6034H36.496V56.205H34.5787V54.4989H34.3502L31.6582 57.251V57.6034H32.5667V59.8744C32.5667 61.2915 33.2894 62 34.7348 62C35.0692 62 35.4185 61.9534 35.7826 61.8602Z" fill="white"/>
<path fill-rule="evenodd" clip-rule="evenodd" d="M43.886 60.5624C44.1312 60.1187 44.2538 59.6134 44.2538 59.0466C44.2538 58.6177 44.1851 58.2262 44.0476 57.8719C43.9101 57.5176 43.7058 57.2081 43.4345 56.9434C43.167 56.6786 42.827 56.4735 42.4146 56.3281C42.0059 56.1789 41.534 56.1043 40.9989 56.1043C40.4676 56.1043 39.9994 56.177 39.5944 56.3225C39.1894 56.4679 38.8476 56.6767 38.5689 56.9489C38.2939 57.2174 38.0877 57.527 37.9502 57.8775C37.8165 58.228 37.7496 58.6177 37.7496 59.0466C37.7496 59.6134 37.8703 60.1187 38.1119 60.5624C38.3571 61.0062 38.7231 61.3567 39.2098 61.614C39.7003 61.8713 40.2967 62 40.9989 62C41.7012 62 42.2957 61.8713 42.7824 61.614C43.2729 61.3567 43.6408 61.0062 43.886 60.5624ZM41.8461 57.9894C42.043 58.2429 42.1415 58.5953 42.1415 59.0466C42.1415 59.4978 42.043 59.8539 41.8461 60.1149C41.6529 60.3723 41.3705 60.5009 40.9989 60.5009C40.6348 60.5009 40.3543 60.3704 40.1573 60.1094C39.9604 59.8483 39.8619 59.4941 39.8619 59.0466C39.8619 58.5953 39.9585 58.2429 40.1518 57.9894C40.3487 57.7321 40.6311 57.6034 40.9989 57.6034C41.3705 57.6034 41.6529 57.7321 41.8461 57.9894Z" fill="white"/>
</svg>
