<svg width="35" height="35" viewBox="0 0 35 35" fill="none" xmlns="http://www.w3.org/2000/svg">
<g clip-path="url(#clip0_105_1502)">
<path d="M17.5 34.9996C20.9612 34.9995 24.3446 33.9732 27.2224 32.0503C30.1003 30.1273 32.3433 27.3942 33.6678 24.1965C34.9923 20.9988 35.3389 17.4802 34.6636 14.0855C33.9884 10.6909 32.3217 7.57268 29.8743 5.12527C28.2531 3.49516 26.3246 2.2028 24.2006 1.32298C22.0765 0.443152 19.7991 -0.00665961 17.5 -0.000424334C7.85026 -0.000424334 0 7.84983 0 17.4996C0 22.1409 1.84374 26.5921 5.12563 29.8739C8.40752 33.1558 12.8587 34.9996 17.5 34.9996Z" fill="black"/>
<path d="M0.603394 17.4998C0.603152 14.1578 1.59399 10.8908 3.45059 8.11197C5.30719 5.33312 7.94616 3.16726 11.0338 1.8883C14.1213 0.60934 17.5189 0.27473 20.7966 0.926788C24.0744 1.57885 27.0852 3.18828 29.4482 5.55155C31.0223 7.11688 32.2701 8.97894 33.1195 11.0299C33.9689 13.0809 34.4029 15.28 34.3965 17.4998C34.3965 26.8159 26.8178 34.3964 17.4999 34.3964C13.0187 34.3964 8.721 32.6162 5.55228 29.4475C2.38356 26.2788 0.603394 21.9811 0.603394 17.4998Z" fill="white"/>
<path d="M17.5 1.30176C8.55388 1.30176 1.30164 8.554 1.30164 17.5001C1.30164 26.4462 8.55388 33.6985 17.5 33.6985C26.4461 33.6985 33.6984 26.4462 33.6984 17.5001C33.6984 8.554 26.4461 1.30176 17.5 1.30176Z" fill="black"/>
<path d="M17.5 27.8468C15.4537 27.8468 13.4532 27.2399 11.7517 26.103C10.0502 24.9661 8.72404 23.3502 7.94092 21.4596C7.1578 19.569 6.9529 17.4886 7.35213 15.4815C7.75137 13.4744 8.7368 11.6308 10.1838 10.1838C11.6308 8.7368 13.4744 7.75137 15.4815 7.35213C17.4886 6.9529 19.569 7.1578 21.4596 7.94092C23.3502 8.72404 24.9661 10.0502 26.103 11.7517C27.2399 13.4532 27.8468 15.4537 27.8468 17.5C27.8466 20.2441 26.7565 22.8758 24.8161 24.8161C22.8758 26.7565 20.2441 27.8466 17.5 27.8468Z" fill="white"/>
<path d="M17.5 17.5V27.1811C20.0676 27.1811 22.53 26.1611 24.3456 24.3456C26.1611 22.53 27.1811 20.0676 27.1811 17.5H17.5Z" fill="#0066CC"/>
<path d="M17.6812 17.6812L17.6812 8.00003C15.1136 8.00003 12.6511 9.02 10.8356 10.8356C9.02 12.6511 8.00003 15.1136 8.00003 17.6812L17.6812 17.6812Z" fill="#0066CC"/>
<path d="M9.89661 7.62801C9.55325 7.2943 9.02342 7.19413 8.52557 7.50249C8.60077 7.29726 8.60269 7.07234 8.531 6.86585C8.31678 6.47482 8.24195 6.42594 8.06514 6.27749C7.49307 5.79473 6.89083 6.20749 6.46057 6.72042L4.37988 9.19999L7.65057 11.9445L9.84471 9.32973C10.3456 8.73232 10.4234 8.13973 9.89661 7.62801Z" fill="white"/>
<path d="M18.0419 6.44989L19.1649 3.47308V6.44989H20.0188V2.18652H18.7359L17.5694 5.23876H17.5821L16.415 2.18652H15.1327V6.44989H15.9866V3.47308L17.1096 6.44989H18.0419Z" fill="white"/>
<path d="M29.5182 8.22368L27.9112 10.4987L30.4029 9.31592L31.0625 10.1306L27.1406 12.0314L26.367 11.0677L27.9094 8.81264L27.9004 8.80118L25.3731 9.84092L24.5917 8.88325L27.2662 5.44238L27.9257 6.25704L26.2512 8.44816L28.811 7.34928L29.5182 8.22368Z" fill="white"/>
<path d="M6.9149 7.33437C7.05973 7.16178 7.3868 7.16902 7.5974 7.34583C7.82852 7.53954 7.82973 7.81471 7.67404 7.99997L6.43818 9.4742L5.66516 8.82368L6.9149 7.33437Z" fill="black"/>
<path d="M9.11212 9.07169L7.80988 10.6238L6.99402 9.93824L8.30712 8.3735C8.45557 8.19669 8.78626 8.14539 9.00893 8.33246C9.26117 8.54427 9.28652 8.86531 9.11333 9.07169H9.11212Z" fill="black"/>
</g>
<defs>
<clipPath id="clip0_105_1502">
<rect width="35" height="35" fill="white"/>
</clipPath>
</defs>
</svg>
